<svg width="34" height="34" viewBox="0 0 34 34" fill="none" xmlns="http://www.w3.org/2000/svg">
<path d="M15.8948 0.393464C16.5382 -0.131155 17.4618 -0.131155 18.1051 0.393464L19.4922 1.52463C19.9289 1.88055 20.5101 2.00447 21.0537 1.85752L22.7771 1.3918C23.5774 1.17552 24.4196 1.55086 24.7938 2.29052L25.6081 3.90061C25.8616 4.40166 26.3402 4.75051 26.8948 4.83837L28.666 5.11891C29.482 5.24818 30.0963 5.93098 30.1386 6.75605L30.2318 8.57252C30.2605 9.13103 30.5548 9.64213 31.0234 9.94752L32.5387 10.9351C33.2287 11.3848 33.5113 12.2552 33.2168 13.0245L32.565 14.7279C32.3655 15.249 32.4268 15.8339 32.7299 16.3024L33.7196 17.8315C34.1667 18.5226 34.0712 19.4319 33.4901 20.0151L32.2084 21.3016C31.8143 21.6973 31.6328 22.2572 31.7202 22.8088L32.0054 24.6094C32.1343 25.4239 31.6763 26.2178 30.9066 26.5143L29.2262 27.1612C28.7032 27.3626 28.3084 27.8022 28.1645 28.3439L27.6992 30.0953C27.4867 30.8953 26.7424 31.4366 25.9158 31.3923L24.1307 31.2969C23.5689 31.2668 23.027 31.5088 22.6745 31.9471L21.5487 33.3471C21.0287 33.9938 20.1257 34.1859 19.3873 33.8069L17.7986 32.9913C17.2972 32.7341 16.7027 32.7341 16.2014 32.9913L14.6126 33.8069C13.8743 34.1859 12.9713 33.9938 12.4513 33.3471L11.3255 31.9471C10.973 31.5088 10.4311 31.2668 9.86934 31.2969L8.08418 31.3923C7.25761 31.4366 6.51325 30.8953 6.30077 30.0953L5.83543 28.3439C5.69156 27.8022 5.29678 27.3626 4.77378 27.1612L3.09338 26.5143C2.32357 26.2178 1.86563 25.4239 1.99465 24.6094L2.27979 22.8088C2.36713 22.2572 2.18569 21.6973 1.79155 21.3016L0.509781 20.0151C-0.0711909 19.4319 -0.16667 18.5226 0.28051 17.8315L1.27003 16.3024C1.57318 15.8339 1.63447 15.249 1.43503 14.7279L0.783074 13.0245C0.488638 12.2552 0.771175 11.3848 1.46131 10.9351L2.97663 9.94752C3.44521 9.64213 3.73939 9.13103 3.76805 8.57252L3.86129 6.75605C3.90364 5.93098 4.51784 5.24818 5.33396 5.11891L7.10509 4.83837C7.65974 4.75051 8.13843 4.40166 8.39187 3.90061L9.20627 2.29052C9.5804 1.55086 10.4226 1.17552 11.2229 1.3918L12.9462 1.85752C13.49 2.00447 14.0712 1.88055 14.5077 1.52463L15.8948 0.393464Z"/>
</svg>
